HIERARCHY
ROOT Hips
{
	OFFSET 0.00000 0.00000 0.00000
	CHANNELS 6 Xposition Yposition Zposition Zrotation Yrotation Xrotation 
	JOINT LHipJoint
	{
		OFFSET 0 0 0
		CHANNELS 3 Zrotation Yrotation Xrotation
		JOINT LeftUpLeg
		{
			OFFSET 1.65674 -1.80282 0.62477
			CHANNELS 3 Zrotation Yrotation Xrotation
			JOINT LeftLeg
			{
				OFFSET 2.59720 -7.13576 0.00000
				CHANNELS 3 Zrotation Yrotation Xrotation
				JOINT LeftFoot
				{
					OFFSET 2.49236 -6.84770 0.00000
					CHANNELS 3 Zrotation Yrotation Xrotation
					JOINT LeftToeBase
					{
						OFFSET 0.19704 -0.54136 2.14581
						CHANNELS 3 Zrotation Yrotation Xrotation
						End Site
						{
							OFFSET 0.00000 -0.00000 1.11249
						}
					}
				}
			}
		}
	}
	JOINT RHipJoint
	{
		OFFSET 0 0 0
		CHANNELS 3 Zrotation Yrotation Xrotation
		JOINT RightUpLeg
		{
			OFFSET -1.61070 -1.80282 0.62476
			CHANNELS 3 Zrotation Yrotation Xrotation
			JOINT RightLeg
			{
				OFFSET -2.59502 -7.12977 0.00000
				CHANNELS 3 Zrotation Yrotation Xrotation
				JOINT RightFoot
				{
					OFFSET -2.46780 -6.78024 0.00000
					CHANNELS 3 Zrotation Yrotation Xrotation
					JOINT RightToeBase
					{
						OFFSET -0.23024 -0.63258 2.13368
						CHANNELS 3 Zrotation Yrotation Xrotation
						End Site
						{
							OFFSET -0.00000 -0.00000 1.11569
						}
					}
				}
			}
		}
	}
	JOINT LowerBack
	{
		OFFSET 0 0 0
		CHANNELS 3 Zrotation Yrotation Xrotation
		JOINT Spine
		{
			OFFSET 0.01961 2.05450 -0.14112
			CHANNELS 3 Zrotation Yrotation Xrotation
			JOINT Spine1
			{
				OFFSET 0.01021 2.06436 -0.05921
				CHANNELS 3 Zrotation Yrotation Xrotation
				JOINT Neck
				{
					OFFSET 0 0 0
					CHANNELS 3 Zrotation Yrotation Xrotation
					JOINT Neck1
					{
						OFFSET 0.00713 1.56711 0.14968
						CHANNELS 3 Zrotation Yrotation Xrotation
						JOINT Head
						{
							OFFSET 0.03429 1.56041 -0.10006
							CHANNELS 3 Zrotation Yrotation Xrotation
							End Site
							{
								OFFSET 0.01305 1.62560 -0.05265
							}
						}
					}
				}
				JOINT LeftShoulder
				{
					OFFSET 0 0 0
					CHANNELS 3 Zrotation Yrotation Xrotation
					JOINT LeftArm
					{
						OFFSET 3.54205 0.90436 -0.17364
						CHANNELS 3 Zrotation Yrotation Xrotation
						JOINT LeftForeArm
						{
							OFFSET 4.86513 -0.00000 -0.00000
							CHANNELS 3 Zrotation Yrotation Xrotation
							JOINT LeftHand
							{
								OFFSET 3.35554 -0.00000 0.00000
								CHANNELS 3 Zrotation Yrotation Xrotation
								JOINT LeftFingerBase
								{
									OFFSET 0 0 0
									CHANNELS 3 Zrotation Yrotation Xrotation
									JOINT LeftHandIndex1
									{
										OFFSET 0.66117 -0.00000 0.00000
										CHANNELS 3 Zrotation Yrotation Xrotation
										End Site
										{
											OFFSET 0.53306 -0.00000 0.00000
										}
									}
								}
								JOINT LThumb
								{
									OFFSET 0 0 0
									CHANNELS 3 Zrotation Yrotation Xrotation
									End Site
									{
										OFFSET 0.54120 -0.00000 0.54120
									}
								}
							}
						}
					}
				}
				JOINT RightShoulder
				{
					OFFSET 0 0 0
					CHANNELS 3 Zrotation Yrotation Xrotation
					JOINT RightArm
					{
						OFFSET -3.49802 0.75994 -0.32616
						CHANNELS 3 Zrotation Yrotation Xrotation
						JOINT RightForeArm
						{
							OFFSET -5.02649 -0.00000 0.00000
							CHANNELS 3 Zrotation Yrotation Xrotation
							JOINT RightHand
							{
								OFFSET -3.36431 -0.00000 0.00000
								CHANNELS 3 Zrotation Yrotation Xrotation
								JOINT RightFingerBase
								{
									OFFSET 0 0 0
									CHANNELS 3 Zrotation Yrotation Xrotation
									JOINT RightHandIndex1
									{
										OFFSET -0.73041 -0.00000 0.00000
										CHANNELS 3 Zrotation Yrotation Xrotation
										End Site
										{
											OFFSET -0.58887 -0.00000 0.00000
										}
									}
								}
								JOINT RThumb
								{
									OFFSET 0 0 0
									CHANNELS 3 Zrotation Yrotation Xrotation
									End Site
									{
										OFFSET -0.59786 -0.00000 0.59786
									}
								}
							}
						}
					}
				}
			}
		}
	}
}
MOTION
Frames: 6
Frame Time: .0083333
10.9814 17.5550 0.5863 -0.8434 1.7698 18.0517 0.0000 0.0000 0.0000 -17.2635 -12.9580 -40.8369 6.2382 14.6553 45.9304 0.2170 5.1775 -12.2244 0.0184 -0.8766 -2.4094 0.0000 0.0000 0.0000 13.9725 20.2871 -39.6960 -6.3407 -14.7505 46.3341 -0.2398 -5.6756 -13.0606 -0.0207 0.9279 -2.5504 -0.8831 -1.0172 27.1417 0.0755 -1.5419 3.9612 1.1379 -0.6729 -10.6111 -0.5679 -0.5161 -17.7959 0.1982 -0.6274 -19.7311 0.1491 -0.2884 -3.5725 0.0000 -0.0000 0.0000 -84.3295 5.3154 23.7800 22.1370 -33.1315 -6.6606 -0.0000 0.0000 -16.9766 26.2417 14.3126 6.9482 -7.1250 0.0000 -0.0000 -1.1735 45.8546 -0.0248 0.0000 -0.0000 0.0000 84.7077 -9.2352 29.6255 -24.5384 35.7284 -8.0188 0.0000 -0.0000 -25.5636 -35.1580 19.8380 -13.4427 7.1250 -0.0000 -0.0000 -4.2768 -6.2250 -3.7987
10.9770 17.6520 0.6075 -0.8361 1.8201 17.9082 0.0000 0.0000 0.0000 -17.4404 -12.7141 -39.6992 5.7884 14.2201 44.1266 0.1522 5.4967 -11.3733 0.0154 -0.8024 -2.2054 0.0000 0.0000 0.0000 14.3229 19.7222 -38.6982 -5.9406 -14.3706 44.7431 -0.1698 -5.9062 -12.1114 -0.0045 0.4336 -1.1913 -0.9425 -1.0218 26.6390 0.1475 -1.5529 3.9440 1.2455 -0.6779 -10.3663 -0.6027 -0.3965 -18.1217 0.0850 -0.4668 -19.1376 0.1186 -0.2037 -3.3029 -0.0000 -0.0000 0.0000 -84.6767 5.7764 22.4252 22.2686 -33.2793 -6.7326 -0.0000 0.0000 -17.5249 25.9941 14.5368 6.9777 -7.1250 0.0000 -0.0000 -1.4390 46.0668 -0.0379 -0.0000 -0.0000 0.0000 84.4236 -9.5898 29.3179 -24.5174 35.7067 -8.0066 0.0000 -0.0000 -25.7225 -35.2703 19.4325 -13.2410 7.1250 -0.0000 -0.0000 -4.4151 -6.6680 -3.8844
10.9647 17.7383 0.6217 -0.9434 1.9636 17.7661 0.0000 0.0000 0.0000 -17.3699 -12.6167 -38.6433 5.3728 13.7917 42.4096 0.0953 5.8033 -10.5764 0.0101 -0.6496 -1.7853 0.0000 0.0000 0.0000 14.8494 19.2168 -37.6975 -5.5625 -13.9906 43.1997 -0.1027 -6.2533 -11.2387 -0.0018 0.2721 -0.7475 -0.8742 -1.0320 26.3004 0.2239 -1.5368 3.8404 1.2801 -0.6723 -10.3083 -0.5102 -0.3854 -18.2807 -0.1027 -0.4830 -18.6805 0.0395 -0.2155 -3.1119 -0.0000 0.0000 0.0000 -84.7004 6.2564 21.6554 22.1951 -33.1968 -6.6923 -0.0000 0.0000 -18.2219 26.4331 14.5593 7.1232 -7.1250 0.0000 -0.0000 -1.0283 46.1517 -0.0292 -0.0000 0.0000 0.0000 84.2330 -9.9779 29.1182 -24.3993 35.5837 -7.9377 0.0000 -0.0000 -25.8031 -35.6601 19.7718 -13.6429 7.1250 -0.0000 -0.0000 -4.6013 -6.1787 -4.0929
10.9532 17.8192 0.6362 -0.8351 2.0817 17.5353 0.0000 0.0000 0.0000 -17.6165 -12.4430 -37.4907 4.9958 13.3791 40.8045 0.0530 6.0657 -9.9699 0.0028 -0.3404 -0.9354 0.0000 0.0000 0.0000 15.2188 18.5439 -36.5826 -5.1988 -13.6042 41.6747 -0.0403 -6.5435 -10.2884 -0.0186 0.8817 -2.4234 -0.9033 -1.0203 26.1562 0.1937 -1.5341 3.6621 1.2618 -0.6686 -10.4358 -0.6302 -0.5576 -18.2356 0.0459 -0.6770 -18.2047 0.1023 -0.3084 -2.9450 0.0000 0.0000 0.0000 -84.5521 6.9230 21.1946 22.0316 -33.0127 -6.6031 -0.0000 0.0000 -18.7050 26.8376 14.2002 7.0752 -7.1250 0.0000 -0.0000 -0.5975 45.8116 -0.0120 0.0000 0.0000 0.0000 84.1883 -10.4975 28.6376 -24.1118 35.2822 -7.7710 0.0000 -0.0000 -25.4412 -35.2259 19.9222 -13.5282 7.1250 -0.0000 -0.0000 -4.3048 -6.1109 -3.8332
10.9454 17.9066 0.6585 -0.8541 2.1890 17.1814 0.0000 0.0000 0.0000 -17.8389 -11.9793 -36.2554 4.6479 12.9759 39.2783 0.0182 6.1855 -9.2965 0.0032 -0.3652 -1.0035 0.0000 0.0000 0.0000 15.6240 17.9923 -35.3496 -4.8535 -13.2169 40.1860 0.0092 -6.7582 -9.4113 -0.0254 1.0296 -2.8302 -0.8022 -1.0459 25.9329 0.1700 -1.5405 3.6596 1.1741 -0.6776 -10.3253 -0.5606 -0.5266 -18.5219 0.0271 -0.6414 -17.6059 0.0832 -0.2952 -2.6882 -0.0000 0.0000 0.0000 -84.5040 7.4576 20.4970 21.9996 -32.9766 -6.5856 -0.0000 0.0000 -18.9513 26.8379 13.9610 6.9597 -7.1250 0.0000 -0.0000 -0.5659 45.5477 -0.0076 -0.0000 0.0000 0.0000 84.2396 -10.6761 28.1559 -23.7194 34.8661 -7.5456 0.0000 -0.0000 -24.9770 -34.8706 19.6451 -13.1852 7.1250 -0.0000 -0.0000 -4.1293 -6.5174 -3.6436
10.9415 17.9872 0.6766 -0.9903 2.2835 16.9727 0.0000 0.0000 0.0000 -17.9006 -11.5062 -35.2751 4.3277 12.5842 37.8313 -0.0248 6.3409 -8.3623 0.0079 -0.5741 -1.5776 0.0000 0.0000 0.0000 15.8936 17.7817 -34.3403 -4.5267 -12.8301 38.7359 0.0347 -6.8591 -8.8904 -0.0042 0.4209 -1.1564 -0.5533 -1.0742 25.5921 0.1823 -1.5067 3.6413 1.0258 -0.6732 -10.1748 -0.4460 -0.4261 -18.7083 -0.1421 -0.5358 -17.2271 0.0112 -0.2469 -2.5277 -0.0000 0.0000 0.0000 -84.5130 7.8734 19.8260 21.9656 -32.9381 -6.5671 -0.0000 0.0000 -19.1282 27.2360 13.5795 6.8910 -7.1250 0.0000 -0.0000 -0.1458 45.1782 -0.0006 -0.0000 0.0000 0.0000 84.3518 -10.8314 27.7076 -23.4559 34.5836 -7.3955 0.0000 -0.0000 -24.6015 -35.1815 19.4541 -13.2126 7.1250 -0.0000 -0.0000 -4.3558 -6.6643 -3.8323
